<?xml version="1.0" encoding="UTF-8" standalone="no"?>
<!-- Created with Inkscape (http://www.inkscape.org/) -->
<svg
   xmlns:dc="http://purl.org/dc/elements/1.1/"
   xmlns:cc="http://creativecommons.org/ns#"
   xmlns:rdf="http://www.w3.org/1999/02/22-rdf-syntax-ns#"
   xmlns:svg="http://www.w3.org/2000/svg"
   xmlns="http://www.w3.org/2000/svg"
   xmlns:sodipodi="http://sodipodi.sourceforge.net/DTD/sodipodi-0.dtd"
   xmlns:inkscape="http://www.inkscape.org/namespaces/inkscape"
   width="587.50635"
   height="716.17554"
   id="svg2"
   sodipodi:version="0.32"
   inkscape:version="0.46"
   version="1.0"
   sodipodi:docname="Syddjurs_Kommune_coa.svg"
   inkscape:output_extension="org.inkscape.output.svg.inkscape">
  <defs
     id="defs4">
    <inkscape:perspective
       id="perspective3237"
       inkscape:persp3d-origin="372.04724 : 350.78739 : 1"
       inkscape:vp_z="744.09448 : 526.18109 : 1"
       inkscape:vp_y="0 : 1000 : 0"
       inkscape:vp_x="0 : 526.18109 : 1"
       sodipodi:type="inkscape:persp3d" />
  </defs>
  <sodipodi:namedview
     id="base"
     pagecolor="#e0e0e0"
     bordercolor="#666666"
     borderopacity="1.0"
     inkscape:pageopacity="1"
     inkscape:pageshadow="2"
     inkscape:zoom="0.98994949"
     inkscape:cx="441.04323"
     inkscape:cy="343.43489"
     inkscape:document-units="px"
     inkscape:current-layer="svg2"
     showgrid="false"
     inkscape:showpageshadow="false"
     inkscape:window-width="1680"
     inkscape:window-height="964"
     inkscape:window-x="-4"
     inkscape:window-y="-4"
     showborder="false" />
  <metadata
     id="metadata7">
    <rdf:RDF>
      <cc:Work
         rdf:about="">
        <dc:format>image/svg+xml</dc:format>
        <dc:type
           rdf:resource="http://purl.org/dc/dcmitype/StillImage" />
        <dc:title>Syddjurs Kommune COA</dc:title>
        <dc:date>2010-07-01</dc:date>
        <dc:creator>
          <cc:Agent>
            <dc:title>Erik Frohne</dc:title>
          </cc:Agent>
        </dc:creator>
        <cc:license
           rdf:resource="http://creativecommons.org/licenses/by-sa/3.0/" />
        <dc:source>http://www.syddjurs.dk/Portaler/Borger/Materiale/filer/intro_design - Seite 2</dc:source>
      </cc:Work>
      <cc:License
         rdf:about="http://creativecommons.org/licenses/by-sa/3.0/">
        <cc:permits
           rdf:resource="http://creativecommons.org/ns#Reproduction" />
        <cc:permits
           rdf:resource="http://creativecommons.org/ns#Distribution" />
        <cc:requires
           rdf:resource="http://creativecommons.org/ns#Notice" />
        <cc:requires
           rdf:resource="http://creativecommons.org/ns#Attribution" />
        <cc:permits
           rdf:resource="http://creativecommons.org/ns#DerivativeWorks" />
        <cc:requires
           rdf:resource="http://creativecommons.org/ns#ShareAlike" />
      </cc:License>
    </rdf:RDF>
  </metadata>
  <path
     sodipodi:nodetypes="csscss"
     id="Shield-BG"
     d="M 39.480707,19.032654 C 205.03837,-3.7930562 374.92046,-9.2930967 553.76642,20.461226 C 563.83547,22.136398 574.49568,21.628955 577.33785,43.318369 C 646.75232,573.03984 339.64562,702.53101 295.19499,716.17551 C 234.47443,703.03275 -59.853943,541.9577 10.909278,44.032654 C 12.84295,30.426384 19.972431,21.722292 39.480707,19.032654 z"
     style="fill:#8b005a;fill-opacity:1;fill-rule:evenodd;stroke:none;stroke-width:1px;stroke-linecap:butt;stroke-linejoin:miter;stroke-opacity:1" />
  <path
     d="M 187.3343,330.01743 C 187.3343,343.74466 176.23682,354.88561 162.56314,354.88561 C 148.88947,354.88561 137.79199,343.74466 137.79199,330.01743 C 137.79199,316.2902 148.88947,305.14925 162.56314,305.14925 C 176.23682,305.14925 187.3343,316.2902 187.3343,330.01743 z M 319.18051,330.29724 C 319.18051,344.02447 308.08303,355.16542 294.40936,355.16542 C 280.73568,355.16542 269.6382,344.02447 269.6382,330.29724 C 269.6382,316.57001 280.73568,305.42906 294.40936,305.42906 C 308.08303,305.42906 319.18051,316.57001 319.18051,330.29724 z M 319.18051,482.83027 C 319.18051,496.5575 308.08303,507.69845 294.40935,507.69845 C 280.73568,507.69845 269.6382,496.5575 269.6382,482.83027 C 269.6382,469.10304 280.73568,457.96209 294.40935,457.96209 C 308.08303,457.96209 319.18051,469.10304 319.18051,482.83027 z M 318.67544,177.25912 C 318.67544,190.98635 307.57796,202.1273 293.90428,202.1273 C 280.23061,202.1273 269.13313,190.98635 269.13313,177.25912 C 269.13313,163.53189 280.23061,152.39094 293.90428,152.39094 C 307.57796,152.39094 318.67544,163.53189 318.67544,177.25912 z M 271.50001,579.85068 C 225.88592,568.90651 191.33516,522.64826 197.54158,475.58069 C 199.92315,428.48043 242.31638,388.32892 289.11365,386.60681 C 313.64066,386.87802 338.86949,373.23854 346.27113,348.74835 C 359.19605,316.15271 331.83417,276.36729 296.71322,277.07282 C 255.67695,277.02669 216.05768,250.38692 202.53092,211.33273 C 190.26748,176.67378 198.50526,135.26666 224.98088,109.20332 C 258.65734,73.321339 320.85276,69.421129 357.27163,103.20055 C 380.78099,122.86276 397.61951,154.55071 391.44756,185.05681 C 387.27917,205.65988 352.056,203.18115 350.40802,181.86013 C 349.74944,160.05868 338.10429,138.93575 317.96416,128.93071 C 287.57385,113.83369 247.42645,133.30569 241.42262,166.58586 C 234.48103,195.52747 255.19143,227.50611 285.03579,231.57146 C 308.54267,232.64498 332.88142,236.99808 351.88313,252.03988 C 379.20332,271.42372 395.48308,305.16 391.93918,338.65915 C 390.68625,385.70905 348.45256,426.67168 301.81873,429.06006 C 281.6013,429.30516 260.309,436.23489 249.21901,454.32331 C 235.90484,474.17183 237.36226,503.61632 254.47007,520.91999 C 264.93713,533.48668 281.11528,537.76999 297.41282,537.75639 C 324.4464,537.73382 350.1767,514.13933 349.37422,488.56029 C 348.6131,464.29964 380.62172,452.94244 390.56383,475.80244 C 399.76881,525.44668 358.29523,574.50845 309.66494,581.49469 C 296.97801,583.3173 283.98062,582.84515 271.50001,579.85068 z"
     style="fill:#ffffff;fill-opacity:1;fill-rule:evenodd;stroke:none;stroke-width:0.90802002;stroke-linecap:square;stroke-linejoin:round;stroke-miterlimit:4;stroke-dashoffset:0;stroke-opacity:1"
     id="Shield-FG"
     sodipodi:nodetypes="csssccsssccsssccssscccccccccscscccccccsscss" />
</svg>
