<?xml version="1.0" encoding="utf-8"?>
<!-- Generator: Adobe Illustrator 20.0.0, SVG Export Plug-In . SVG Version: 6.00 Build 0)  -->
<svg version="1.1"
	 id="svg2" inkscape:output_extension="org.inkscape.output.svg.inkscape" inkscape:version="0.46" sodipodi:docname="Syddjurs_Kommune_coa.svg" sodipodi:version="0.32" xmlns:cc="http://creativecommons.org/ns#" xmlns:dc="http://purl.org/dc/elements/1.1/" xmlns:inkscape="http://www.inkscape.org/namespaces/inkscape" xmlns:rdf="http://www.w3.org/1999/02/22-rdf-syntax-ns#" xmlns:sodipodi="http://sodipodi.sourceforge.net/DTD/sodipodi-0.dtd" xmlns:svg="http://www.w3.org/2000/svg"
	 xmlns="http://www.w3.org/2000/svg" xmlns:xlink="http://www.w3.org/1999/xlink" x="0px" y="0px" viewBox="0 0 587.5 716.2"
	 style="enable-background:new 0 0 587.5 716.2;" xml:space="preserve">
<style type="text/css">
	.st0{fill:#FFFFFF;fill-opacity:0.2;transform:rotate(-45 100 100)}
</style>
<defs>
	
	
		<inkscape:perspective  id="perspective3237" inkscape:persp3d-origin="372.04724 : 350.78739 : 1" inkscape:vp_x="0 : 526.18109 : 1" inkscape:vp_y="0 : 1000 : 0" inkscape:vp_z="744.09448 : 526.18109 : 1" sodipodi:type="inkscape:persp3d">
		</inkscape:perspective>
</defs>
<sodipodi:namedview  bordercolor="#666666" borderopacity="1.0" id="base" inkscape:current-layer="svg2" inkscape:cx="441.04323" inkscape:cy="343.43489" inkscape:document-units="px" inkscape:pageopacity="1" inkscape:pageshadow="2" inkscape:showpageshadow="false" inkscape:window-height="964" inkscape:window-width="1680" inkscape:window-x="-4" inkscape:window-y="-4" inkscape:zoom="0.98994949" pagecolor="#e0e0e0" showborder="false" showgrid="false">
	</sodipodi:namedview>
<path class="st0" d="M577.3,43.3c-2.8-21.7-13.5-21.2-23.6-22.9C374.9-9.3,205-3.8,39.5,19C20,21.7,12.8,30.4,10.9,44
	C-59.9,542,234.5,703,295.2,716.2C339.6,702.5,646.8,573,577.3,43.3z M162.6,354.9c-13.7,0-24.8-11.1-24.8-24.9s11.1-24.9,24.8-24.9
	c13.7,0,24.8,11.1,24.8,24.9S176.2,354.9,162.6,354.9z M318,128.9c-30.4-15.1-70.5,4.4-76.5,37.7c-6.9,28.9,13.8,60.9,43.6,65
	c23.5,1.1,47.8,5.4,66.8,20.5c27.3,19.4,43.6,53.1,40.1,86.6c-1.3,47-43.5,88-90.1,90.4c-20.2,0.2-41.5,7.2-52.6,25.3
	c-13.3,19.8-11.9,49.3,5.3,66.6c10.5,12.6,26.6,16.9,42.9,16.8c27,0,52.8-23.6,52-49.2c-0.8-24.3,31.2-35.6,41.2-12.8
	c9.2,49.6-32.3,98.7-80.9,105.7c-12.7,1.8-25.7,1.4-38.2-1.6c-45.6-10.9-80.2-57.2-74-104.3c2.4-47.1,44.8-87.3,91.6-89
	c24.5,0.3,49.8-13.4,57.2-37.9c12.9-32.6-14.4-72.4-49.6-71.7c-41,0-80.7-26.7-94.2-65.7c-12.3-34.7-4-76.1,22.4-102.1
	c33.7-35.9,95.9-39.8,132.3-6c23.5,19.7,40.3,51.4,34.2,81.9c-4.2,20.6-39.4,18.1-41-3.2C349.7,160.1,338.1,138.9,318,128.9z
	 M318.7,177.3c0,13.7-11.1,24.9-24.8,24.9c-13.7,0-24.8-11.1-24.8-24.9s11.1-24.9,24.8-24.9C307.6,152.4,318.7,163.5,318.7,177.3z
	 M319.2,482.8c0,13.7-11.1,24.9-24.8,24.9c-13.7,0-24.8-11.1-24.8-24.9s11.1-24.9,24.8-24.9C308.1,458,319.2,469.1,319.2,482.8z
	 M269.6,330.3c0-13.7,11.1-24.9,24.8-24.9c13.7,0,24.8,11.1,24.8,24.9s-11.1,24.9-24.8,24.9C280.7,355.2,269.6,344,269.6,330.3z"/>
</svg>
