<?xml version="1.0" encoding="utf-8"?>
<!-- Generator: Adobe Illustrator 21.0.0, SVG Export Plug-In . SVG Version: 6.00 Build 0)  -->
<svg version="1.1" id="Layer_1" xmlns="http://www.w3.org/2000/svg" xmlns:xlink="http://www.w3.org/1999/xlink" x="0px" y="0px"
	 viewBox="0 0 512 512" style="enable-background:new 0 0 512 512;" xml:space="preserve">
<style type="text/css">
	.st0{fill:#8B005A;}
</style>
<g>
	<g>
		<path class="st0" d="M405.3,208c-9.7,0-19.2,1.3-28.2,3.8l-27.5-71.4l9.9-10.2c4.1-4.2,4-10.9-0.1-15l-21.3-21.3
			c-2-2-4.7-3.1-7.5-3.1h-53.3c-5.9,0-10.7,4.8-10.7,10.7s4.8,10.7,10.7,10.7h48.9l10.8,10.8l-7.4,7.6c-3,3.1-3.7,7.4-2.3,11.2
			c0,0,0,0.1,0,0.1l9.8,25.5L192,185.2v-19.9h32c5.9,0,10.7-4.8,10.7-10.7c0-5.9-4.8-10.7-10.7-10.7h-64c-5.9,0-10.7,4.8-10.7,10.7
			c0,5.9,4.8,10.7,10.7,10.7h10.7v29.1L155.8,220c-14.7-7.7-31.4-12-49.1-12C47.9,208,0,255.8,0,314.7
			c0,58.8,47.9,106.7,106.7,106.7c51.5,0,94.6-36.7,104.5-85.3h14.6c4.4,12.4,16.3,21.3,30.2,21.3c17.6,0,32-14.3,32-32
			c0-7.4-2.5-14.2-6.7-19.6l68.3-106.3l7.7,20c-34.7,17.6-58.6,53.7-58.6,95.2c0,58.8,47.9,106.7,106.7,106.7S512,373.5,512,314.7
			C512,255.8,464.2,208,405.3,208z M106.7,400c-47.1,0-85.3-38.3-85.3-85.3c0-47,38.3-85.3,85.3-85.3c13.8,0,26.8,3.3,38.3,9.1
			L97.5,320c-3,5.1-1.3,11.6,3.8,14.6c1.7,1,3.5,1.4,5.4,1.4c0,0,0,0,0.1,0h82.6C179.8,372.8,146.4,400,106.7,400z M125.2,314.7
			l37.5-64.3c17.9,15.7,29.3,38.7,29.3,64.3H125.2z M225.8,314.7h-12.5c0-33.5-15.5-63.4-39.7-83l7.7-13.2l50.3,86.2
			C229.1,307.6,227.1,311,225.8,314.7z M256,336c-5.9,0-10.7-4.8-10.7-10.7c0-5.9,4.8-10.7,10.7-10.7c5.9,0,10.7,4.8,10.7,10.7
			C266.7,331.2,261.9,336,256,336z M263.3,294.2c-2.4-0.5-4.8-0.8-7.3-0.8c-2.1,0-4.1,0.2-6,0.6l-51.3-88l132-16.5L263.3,294.2z
			 M405.3,400c-47.1,0-85.3-38.3-85.3-85.3c0-32.5,18.3-60.7,45-75.2l30.4,79c1.6,4.2,5.7,6.8,10,6.8c1.3,0,2.6-0.2,3.8-0.7
			c5.5-2.1,8.2-8.3,6.1-13.8l-30.4-79c6.6-1.6,13.4-2.5,20.5-2.5c47,0,85.3,38.3,85.3,85.3C490.7,361.7,452.4,400,405.3,400z"/>
	</g>
</g>
</svg>
