<?xml version="1.0" encoding="utf-8"?>
<!-- Generator: Adobe Illustrator 21.0.0, SVG Export Plug-In . SVG Version: 6.00 Build 0)  -->
<svg version="1.1" id="Lag_1" xmlns="http://www.w3.org/2000/svg" xmlns:xlink="http://www.w3.org/1999/xlink" x="0px" y="0px"
	 viewBox="0 0 512 512" style="enable-background:new 0 0 512 512;" xml:space="preserve">
<style type="text/css">
	.st0{fill:#8B005A;}
</style>
<g>
	<path class="st0" d="M496.4,243.1C432.5,164.4,347.1,121,256,121S79.5,164.4,15.6,243.1c-6.1,7.5-6.1,18.2,0,25.7
		C79.5,347.6,164.9,391,256,391s176.5-43.4,240.4-122.1C502.5,261.4,502.5,250.6,496.4,243.1L496.4,243.1z M256,322.9
		c-36.9,0-66.9-30-66.9-66.9s30-66.9,66.9-66.9s66.9,30,66.9,66.9S292.9,322.9,256,322.9z M58.2,256c37.8-42.2,82.9-71.1,131.5-84.9
		c-25.2,19.7-41.5,50.4-41.5,84.9c0,34.4,16.2,65.1,41.5,84.9C141.1,327.1,96.1,298.2,58.2,256z M322.3,340.9
		c25.2-19.7,41.5-50.4,41.5-84.9c0-34.4-16.2-65.1-41.5-84.9c48.6,13.8,93.7,42.7,131.5,84.9C415.9,298.2,370.9,327.1,322.3,340.9z"
		/>
</g>
</svg>
