<?xml version="1.0" encoding="utf-8"?>
<!-- Generator: Adobe Illustrator 21.0.0, SVG Export Plug-In . SVG Version: 6.00 Build 0)  -->
<svg version="1.1" id="Capa_1" xmlns="http://www.w3.org/2000/svg" xmlns:xlink="http://www.w3.org/1999/xlink" x="0px" y="0px"
	 viewBox="0 0 512 512" style="enable-background:new 0 0 512 512;" xml:space="preserve">
<style type="text/css">
	.st0{fill:#8B005A;}
</style>
<g>
	<g>
		<path class="st0" d="M427.6,251.2c-8.3,0-14.8,6.4-14.8,14.8v201.7H308.2v-82.4c0-7.7-6.4-14.5-14.2-14.5h-75.7
			c-8.3,0-15,6.8-15,14.5v82.4H98.9v-195c0-7.8-6.4-14.3-14.8-14.3c-7.8,0-14.2,6.5-14.2,14.3v209.8c0,7.8,6.4,14.3,14.2,14.3h134.2
			c7.8,0,14.2-6.5,14.2-14.3v-82.4h46.7v82.4c0,7.8,6.4,14.3,14.8,14.3h133.6c7.8,0,14.2-6.5,14.2-14.3V266
			C441.8,257.6,435.4,251.2,427.6,251.2z"/>
		<path class="st0" d="M507.8,262.7L391.4,145.8V66c0-8.3-6.7-14.7-15-14.7c-7.8,0-14.2,6.4-14.2,14.7v50.5l-96.1-96.6
			c-2.9-3-6.4-4.6-9.9-4.6c-4,0-7.5,1.7-10.5,4.6L4.5,261.1c-5.8,5.8-6.2,15.1,0,20.4c5.4,6.2,14.6,5.8,20.4,0L256.2,50.7
			l230.7,232.9c2.4,2.4,5.9,3.8,10.5,3.8c4,0,7.5-1.4,10.5-3.8C513.2,278.3,513.6,268.5,507.8,262.7z"/>
	</g>
</g>
</svg>
